<svg width="401" height="233" viewBox="0 0 401 233" fill="none" xmlns="http://www.w3.org/2000/svg">
<path d="M22.8 62.935C17.87 62.935 13.62 62.1417 10.05 60.555C6.53667 58.9117 3.30667 56.4467 0.36 53.16L9.03 44.575C10.9567 46.785 13.0817 48.5133 15.405 49.76C17.785 50.95 20.5333 51.545 23.65 51.545C26.4833 51.545 28.665 51.035 30.195 50.015C31.7817 48.995 32.575 47.5783 32.575 45.765C32.575 44.1217 32.065 42.79 31.045 41.77C30.025 40.75 28.665 39.8717 26.965 39.135C25.3217 38.3983 23.48 37.69 21.44 37.01C19.4567 36.33 17.4733 35.565 15.49 34.715C13.5067 33.8083 11.665 32.7033 9.965 31.4C8.32167 30.04 6.99 28.3683 5.97 26.385C4.95 24.345 4.44 21.795 4.44 18.735C4.44 15.0517 5.31833 11.8783 7.075 9.215C8.88833 6.55166 11.3817 4.54 14.555 3.18C17.7283 1.76333 21.3833 1.055 25.52 1.055C29.7133 1.055 33.5383 1.79166 36.995 3.265C40.5083 4.73833 43.3983 6.75 45.665 9.3L36.995 17.885C35.1817 16.015 33.34 14.6267 31.47 13.72C29.6567 12.8133 27.5883 12.36 25.265 12.36C22.9417 12.36 21.1 12.8133 19.74 13.72C18.38 14.57 17.7 15.8167 17.7 17.46C17.7 18.99 18.21 20.2367 19.23 21.2C20.25 22.1067 21.5817 22.9 23.225 23.58C24.925 24.26 26.7667 24.94 28.75 25.62C30.79 26.3 32.8017 27.0933 34.785 28C36.7683 28.9067 38.5817 30.0683 40.225 31.485C41.925 32.845 43.285 34.6017 44.305 36.755C45.325 38.8517 45.835 41.4583 45.835 44.575C45.835 50.2983 43.795 54.8033 39.715 58.09C35.635 61.32 29.9967 62.935 22.8 62.935ZM73.2966 62.935C68.82 62.935 64.825 62.0283 61.3116 60.215C57.855 58.345 55.135 55.7667 53.1516 52.48C51.1683 49.1933 50.1766 45.4817 50.1766 41.345C50.1766 37.2083 51.14 33.525 53.0666 30.295C55.05 27.0083 57.7133 24.43 61.0566 22.56C64.4 20.69 68.1683 19.755 72.3616 19.755C76.4416 19.755 80.04 20.6333 83.1566 22.39C86.2733 24.1467 88.71 26.5833 90.4666 29.7C92.28 32.8167 93.1866 36.3867 93.1866 40.41C93.1866 41.1467 93.13 41.94 93.0166 42.79C92.96 43.5833 92.8183 44.5183 92.5916 45.595L56.9766 45.68V36.755L87.0666 36.67L81.4566 40.41C81.4 38.03 81.0316 36.075 80.3516 34.545C79.6716 32.9583 78.6516 31.7683 77.2916 30.975C75.9883 30.125 74.3733 29.7 72.4466 29.7C70.4066 29.7 68.6216 30.1817 67.0916 31.145C65.6183 32.0517 64.4566 33.355 63.6066 35.055C62.8133 36.755 62.4166 38.8233 62.4166 41.26C62.4166 43.6967 62.8416 45.7933 63.6916 47.55C64.5983 49.25 65.845 50.5817 67.4316 51.545C69.075 52.4517 71.0016 52.905 73.2116 52.905C75.2516 52.905 77.0933 52.565 78.7366 51.885C80.38 51.1483 81.825 50.0717 83.0716 48.655L90.2116 55.795C88.1716 58.175 85.7066 59.96 82.8166 61.15C79.9266 62.34 76.7533 62.935 73.2966 62.935ZM126.749 62V38.455C126.749 36.3017 126.069 34.5733 124.709 33.27C123.406 31.91 121.734 31.23 119.694 31.23C118.277 31.23 117.031 31.5417 115.954 32.165C114.877 32.7317 114.027 33.5817 113.404 34.715C112.781 35.7917 112.469 37.0383 112.469 38.455L107.454 35.99C107.454 32.76 108.162 29.9267 109.579 27.49C110.996 25.0533 112.951 23.1833 115.444 21.88C117.994 20.52 120.856 19.84 124.029 19.84C127.089 19.84 129.781 20.5767 132.104 22.05C134.484 23.4667 136.354 25.365 137.714 27.745C139.074 30.125 139.754 32.7317 139.754 35.565V62H126.749ZM99.464 62V20.69H112.469V62H99.464ZM153.474 62V3.605H166.479V62H153.474ZM144.124 31.74V20.69H175.829V31.74H144.124ZM181.559 62V20.69H194.564V62H181.559ZM188.104 14.995C186.064 14.995 184.364 14.315 183.004 12.955C181.7 11.5383 181.049 9.83833 181.049 7.855C181.049 5.815 181.7 4.115 183.004 2.755C184.364 1.395 186.064 0.714999 188.104 0.714999C190.144 0.714999 191.815 1.395 193.119 2.755C194.422 4.115 195.074 5.815 195.074 7.855C195.074 9.83833 194.422 11.5383 193.119 12.955C191.815 14.315 190.144 14.995 188.104 14.995ZM203.722 62V20.69H216.727V62H203.722ZM230.157 62V37.86C230.157 35.7633 229.505 34.1483 228.202 33.015C226.955 31.825 225.397 31.23 223.527 31.23C222.224 31.23 221.062 31.5133 220.042 32.08C219.022 32.59 218.2 33.3267 217.577 34.29C217.01 35.2533 216.727 36.4433 216.727 37.86L211.712 35.65C211.712 32.3633 212.42 29.5583 213.837 27.235C215.254 24.855 217.18 23.0417 219.617 21.795C222.054 20.4917 224.802 19.84 227.862 19.84C230.752 19.84 233.33 20.4917 235.597 21.795C237.92 23.0983 239.762 24.9117 241.122 27.235C242.482 29.5583 243.162 32.335 243.162 35.565V62H230.157ZM256.592 62V37.86C256.592 35.7633 255.94 34.1483 254.637 33.015C253.39 31.825 251.832 31.23 249.962 31.23C248.659 31.23 247.497 31.5133 246.477 32.08C245.457 32.59 244.635 33.3267 244.012 34.29C243.445 35.2533 243.162 36.4433 243.162 37.86L235.682 36.84C235.795 33.3267 236.617 30.3233 238.147 27.83C239.734 25.28 241.802 23.325 244.352 21.965C246.959 20.5483 249.877 19.84 253.107 19.84C256.28 19.84 259.085 20.52 261.522 21.88C264.015 23.1833 265.97 25.0817 267.387 27.575C268.86 30.0117 269.597 32.9583 269.597 36.415V62H256.592ZM298.331 62.935C293.854 62.935 289.859 62.0283 286.346 60.215C282.889 58.345 280.169 55.7667 278.186 52.48C276.202 49.1933 275.211 45.4817 275.211 41.345C275.211 37.2083 276.174 33.525 278.101 30.295C280.084 27.0083 282.747 24.43 286.091 22.56C289.434 20.69 293.202 19.755 297.396 19.755C301.476 19.755 305.074 20.6333 308.191 22.39C311.307 24.1467 313.744 26.5833 315.501 29.7C317.314 32.8167 318.221 36.3867 318.221 40.41C318.221 41.1467 318.164 41.94 318.051 42.79C317.994 43.5833 317.852 44.5183 317.626 45.595L282.011 45.68V36.755L312.101 36.67L306.491 40.41C306.434 38.03 306.066 36.075 305.386 34.545C304.706 32.9583 303.686 31.7683 302.326 30.975C301.022 30.125 299.407 29.7 297.481 29.7C295.441 29.7 293.656 30.1817 292.126 31.145C290.652 32.0517 289.491 33.355 288.641 35.055C287.847 36.755 287.451 38.8233 287.451 41.26C287.451 43.6967 287.876 45.7933 288.726 47.55C289.632 49.25 290.879 50.5817 292.466 51.545C294.109 52.4517 296.036 52.905 298.246 52.905C300.286 52.905 302.127 52.565 303.771 51.885C305.414 51.1483 306.859 50.0717 308.106 48.655L315.246 55.795C313.206 58.175 310.741 59.96 307.851 61.15C304.961 62.34 301.787 62.935 298.331 62.935ZM351.783 62V38.455C351.783 36.3017 351.103 34.5733 349.743 33.27C348.44 31.91 346.768 31.23 344.728 31.23C343.312 31.23 342.065 31.5417 340.988 32.165C339.912 32.7317 339.062 33.5817 338.438 34.715C337.815 35.7917 337.503 37.0383 337.503 38.455L332.488 35.99C332.488 32.76 333.197 29.9267 334.613 27.49C336.03 25.0533 337.985 23.1833 340.478 21.88C343.028 20.52 345.89 19.84 349.063 19.84C352.123 19.84 354.815 20.5767 357.138 22.05C359.518 23.4667 361.388 25.365 362.748 27.745C364.108 30.125 364.788 32.7317 364.788 35.565V62H351.783ZM324.498 62V20.69H337.503V62H324.498ZM378.508 62V3.605H391.513V62H378.508ZM369.158 31.74V20.69H400.863V31.74H369.158ZM0.275 147L24.075 86.99H36.145L59.69 147H45.58L27.56 97.19H32.405L14.13 147H0.275ZM13.79 136.12V125.24H46.515V136.12H13.79ZM92.7988 147V123.455C92.7988 121.302 92.1188 119.573 90.7588 118.27C89.4555 116.91 87.7838 116.23 85.7438 116.23C84.3272 116.23 83.0805 116.542 82.0038 117.165C80.9272 117.732 80.0772 118.582 79.4538 119.715C78.8305 120.792 78.5188 122.038 78.5188 123.455L73.5038 120.99C73.5038 117.76 74.2122 114.927 75.6288 112.49C77.0455 110.053 79.0005 108.183 81.4938 106.88C84.0438 105.52 86.9055 104.84 90.0788 104.84C93.1388 104.84 95.8305 105.577 98.1538 107.05C100.534 108.467 102.404 110.365 103.764 112.745C105.124 115.125 105.804 117.732 105.804 120.565V147H92.7988ZM65.5138 147V105.69H78.5188V147H65.5138ZM131.411 147.85C127.615 147.85 124.215 146.915 121.211 145.045C118.265 143.175 115.913 140.625 114.156 137.395C112.456 134.165 111.606 130.482 111.606 126.345C111.606 122.208 112.456 118.525 114.156 115.295C115.913 112.065 118.265 109.515 121.211 107.645C124.215 105.775 127.615 104.84 131.411 104.84C134.188 104.84 136.681 105.378 138.891 106.455C141.158 107.532 143 109.033 144.416 110.96C145.833 112.83 146.626 114.983 146.796 117.42V135.27C146.626 137.707 145.833 139.888 144.416 141.815C143.056 143.685 141.243 145.158 138.976 146.235C136.71 147.312 134.188 147.85 131.411 147.85ZM134.046 136.12C136.823 136.12 139.061 135.213 140.761 133.4C142.461 131.53 143.311 129.178 143.311 126.345C143.311 124.418 142.915 122.718 142.121 121.245C141.385 119.772 140.308 118.638 138.891 117.845C137.531 116.995 135.945 116.57 134.131 116.57C132.318 116.57 130.703 116.995 129.286 117.845C127.926 118.638 126.821 119.772 125.971 121.245C125.178 122.718 124.781 124.418 124.781 126.345C124.781 128.215 125.178 129.887 125.971 131.36C126.765 132.833 127.87 133.995 129.286 134.845C130.703 135.695 132.29 136.12 134.046 136.12ZM142.801 147V135.865L144.756 125.835L142.801 115.805V105.69H155.551V147H142.801ZM164.708 147V85.29H177.713V147H164.708ZM199.621 147.17L182.621 105.69H196.646L207.441 138.585H202.256L213.306 105.69H227.331L209.651 147.17H199.621ZM188.996 164.425L201.406 137.65L209.651 147.17L202.341 164.425H188.996ZM245.827 148.02C243.391 148.02 240.982 147.708 238.602 147.085C236.279 146.462 234.097 145.583 232.057 144.45C230.074 143.26 228.374 141.9 226.957 140.37L234.352 132.89C235.712 134.363 237.327 135.525 239.197 136.375C241.067 137.168 243.107 137.565 245.317 137.565C246.847 137.565 248.009 137.338 248.802 136.885C249.652 136.432 250.077 135.808 250.077 135.015C250.077 133.995 249.567 133.23 248.547 132.72C247.584 132.153 246.337 131.672 244.807 131.275C243.277 130.822 241.662 130.34 239.962 129.83C238.262 129.32 236.647 128.612 235.117 127.705C233.587 126.798 232.341 125.552 231.377 123.965C230.414 122.322 229.932 120.253 229.932 117.76C229.932 115.097 230.612 112.802 231.972 110.875C233.332 108.892 235.259 107.333 237.752 106.2C240.246 105.067 243.164 104.5 246.507 104.5C250.021 104.5 253.251 105.123 256.197 106.37C259.201 107.56 261.637 109.345 263.507 111.725L256.112 119.205C254.809 117.675 253.336 116.598 251.692 115.975C250.106 115.352 248.547 115.04 247.017 115.04C245.544 115.04 244.439 115.267 243.702 115.72C242.966 116.117 242.597 116.712 242.597 117.505C242.597 118.355 243.079 119.035 244.042 119.545C245.006 120.055 246.252 120.508 247.782 120.905C249.312 121.302 250.927 121.783 252.627 122.35C254.327 122.917 255.942 123.682 257.472 124.645C259.002 125.608 260.249 126.912 261.212 128.555C262.176 130.142 262.657 132.238 262.657 134.845C262.657 138.868 261.127 142.07 258.067 144.45C255.064 146.83 250.984 148.02 245.827 148.02ZM269.713 147V105.69H282.718V147H269.713ZM276.258 99.995C274.218 99.995 272.518 99.315 271.158 97.955C269.855 96.5383 269.203 94.8383 269.203 92.855C269.203 90.815 269.855 89.115 271.158 87.755C272.518 86.395 274.218 85.715 276.258 85.715C278.298 85.715 279.97 86.395 281.273 87.755C282.576 89.115 283.228 90.815 283.228 92.855C283.228 94.8383 282.576 96.5383 281.273 97.955C279.97 99.315 278.298 99.995 276.258 99.995ZM306.921 148.02C304.484 148.02 302.076 147.708 299.696 147.085C297.373 146.462 295.191 145.583 293.151 144.45C291.168 143.26 289.468 141.9 288.051 140.37L295.446 132.89C296.806 134.363 298.421 135.525 300.291 136.375C302.161 137.168 304.201 137.565 306.411 137.565C307.941 137.565 309.103 137.338 309.896 136.885C310.746 136.432 311.171 135.808 311.171 135.015C311.171 133.995 310.661 133.23 309.641 132.72C308.678 132.153 307.431 131.672 305.901 131.275C304.371 130.822 302.756 130.34 301.056 129.83C299.356 129.32 297.741 128.612 296.211 127.705C294.681 126.798 293.434 125.552 292.471 123.965C291.508 122.322 291.026 120.253 291.026 117.76C291.026 115.097 291.706 112.802 293.066 110.875C294.426 108.892 296.353 107.333 298.846 106.2C301.339 105.067 304.258 104.5 307.601 104.5C311.114 104.5 314.344 105.123 317.291 106.37C320.294 107.56 322.731 109.345 324.601 111.725L317.206 119.205C315.903 117.675 314.429 116.598 312.786 115.975C311.199 115.352 309.641 115.04 308.111 115.04C306.638 115.04 305.533 115.267 304.796 115.72C304.059 116.117 303.691 116.712 303.691 117.505C303.691 118.355 304.173 119.035 305.136 119.545C306.099 120.055 307.346 120.508 308.876 120.905C310.406 121.302 312.021 121.783 313.721 122.35C315.421 122.917 317.036 123.682 318.566 124.645C320.096 125.608 321.343 126.912 322.306 128.555C323.269 130.142 323.751 132.238 323.751 134.845C323.751 138.868 322.221 142.07 319.161 144.45C316.158 146.83 312.078 148.02 306.921 148.02ZM14.98 210.155V199.785H27.9C29.5433 199.785 31.045 199.445 32.405 198.765C33.765 198.085 34.8417 197.093 35.635 195.79C36.4283 194.487 36.825 192.9 36.825 191.03C36.825 189.217 36.4283 187.658 35.635 186.355C34.8417 185.052 33.765 184.06 32.405 183.38C31.045 182.7 29.5433 182.36 27.9 182.36H14.98V171.99H29.855C33.6517 171.99 37.08 172.755 40.14 174.285C43.2 175.815 45.6083 178.025 47.365 180.915C49.1783 183.748 50.085 187.12 50.085 191.03C50.085 194.94 49.1783 198.34 47.365 201.23C45.6083 204.063 43.2 206.273 40.14 207.86C37.08 209.39 33.6517 210.155 29.855 210.155H14.98ZM4.78 232V171.99H18.125V232H4.78ZM56.964 232V170.29H69.969V232H56.964ZM96.3821 232.85C92.5854 232.85 89.1854 231.915 86.1821 230.045C83.2354 228.175 80.8838 225.625 79.1271 222.395C77.4271 219.165 76.5771 215.482 76.5771 211.345C76.5771 207.208 77.4271 203.525 79.1271 200.295C80.8838 197.065 83.2354 194.515 86.1821 192.645C89.1854 190.775 92.5854 189.84 96.3821 189.84C99.1588 189.84 101.652 190.378 103.862 191.455C106.129 192.532 107.97 194.033 109.387 195.96C110.804 197.83 111.597 199.983 111.767 202.42V220.27C111.597 222.707 110.804 224.888 109.387 226.815C108.027 228.685 106.214 230.158 103.947 231.235C101.68 232.312 99.1588 232.85 96.3821 232.85ZM99.0171 221.12C101.794 221.12 104.032 220.213 105.732 218.4C107.432 216.53 108.282 214.178 108.282 211.345C108.282 209.418 107.885 207.718 107.092 206.245C106.355 204.772 105.279 203.638 103.862 202.845C102.502 201.995 100.915 201.57 99.1021 201.57C97.2888 201.57 95.6738 201.995 94.2571 202.845C92.8971 203.638 91.7921 204.772 90.9421 206.245C90.1488 207.718 89.7521 209.418 89.7521 211.345C89.7521 213.215 90.1488 214.887 90.9421 216.36C91.7354 217.833 92.8404 218.995 94.2571 219.845C95.6738 220.695 97.2604 221.12 99.0171 221.12ZM107.772 232V220.865L109.727 210.835L107.772 200.805V190.69H120.522V232H107.772ZM135.544 232V173.605H148.549V232H135.544ZM126.194 201.74V190.69H157.899V201.74H126.194ZM167.82 232V187.12C167.82 183.777 168.557 180.773 170.03 178.11C171.56 175.39 173.685 173.265 176.405 171.735C179.125 170.148 182.355 169.355 186.095 169.355C188.928 169.355 191.393 169.837 193.49 170.8C195.643 171.707 197.513 172.982 199.1 174.625L190.94 182.785C190.373 182.218 189.722 181.793 188.985 181.51C188.305 181.17 187.483 181 186.52 181C184.763 181 183.375 181.51 182.355 182.53C181.335 183.55 180.825 184.938 180.825 186.695V232H167.82ZM158.725 201.74V190.69H192.725V201.74H158.725ZM217.635 232.935C213.385 232.935 209.532 232 206.075 230.13C202.675 228.203 199.984 225.597 198 222.31C196.017 219.023 195.025 215.34 195.025 211.26C195.025 207.18 196.017 203.525 198 200.295C199.984 197.065 202.675 194.515 206.075 192.645C209.475 190.718 213.329 189.755 217.635 189.755C221.942 189.755 225.795 190.69 229.195 192.56C232.595 194.43 235.287 197.008 237.27 200.295C239.254 203.525 240.245 207.18 240.245 211.26C240.245 215.34 239.254 219.023 237.27 222.31C235.287 225.597 232.595 228.203 229.195 230.13C225.795 232 221.942 232.935 217.635 232.935ZM217.635 221.12C219.505 221.12 221.149 220.723 222.565 219.93C223.982 219.08 225.059 217.918 225.795 216.445C226.589 214.915 226.985 213.187 226.985 211.26C226.985 209.333 226.589 207.662 225.795 206.245C225.002 204.772 223.897 203.638 222.48 202.845C221.12 201.995 219.505 201.57 217.635 201.57C215.822 201.57 214.207 201.995 212.79 202.845C211.374 203.638 210.269 204.772 209.475 206.245C208.682 207.718 208.285 209.418 208.285 211.345C208.285 213.215 208.682 214.915 209.475 216.445C210.269 217.918 211.374 219.08 212.79 219.93C214.207 220.723 215.822 221.12 217.635 221.12ZM246.72 232V190.69H259.725V232H246.72ZM259.725 209.305L254.285 205.055C255.362 200.238 257.175 196.498 259.725 193.835C262.275 191.172 265.817 189.84 270.35 189.84C272.333 189.84 274.062 190.152 275.535 190.775C277.065 191.342 278.397 192.248 279.53 193.495L271.795 203.27C271.228 202.647 270.52 202.165 269.67 201.825C268.82 201.485 267.857 201.315 266.78 201.315C264.627 201.315 262.898 201.995 261.595 203.355C260.348 204.658 259.725 206.642 259.725 209.305ZM282.745 232V190.69H295.75V232H282.745ZM309.18 232V207.86C309.18 205.763 308.529 204.148 307.225 203.015C305.979 201.825 304.42 201.23 302.55 201.23C301.247 201.23 300.085 201.513 299.065 202.08C298.045 202.59 297.224 203.327 296.6 204.29C296.034 205.253 295.75 206.443 295.75 207.86L290.735 205.65C290.735 202.363 291.444 199.558 292.86 197.235C294.277 194.855 296.204 193.042 298.64 191.795C301.077 190.492 303.825 189.84 306.885 189.84C309.775 189.84 312.354 190.492 314.62 191.795C316.944 193.098 318.785 194.912 320.145 197.235C321.505 199.558 322.185 202.335 322.185 205.565V232H309.18ZM335.615 232V207.86C335.615 205.763 334.964 204.148 333.66 203.015C332.414 201.825 330.855 201.23 328.985 201.23C327.682 201.23 326.52 201.513 325.5 202.08C324.48 202.59 323.659 203.327 323.035 204.29C322.469 205.253 322.185 206.443 322.185 207.86L314.705 206.84C314.819 203.327 315.64 200.323 317.17 197.83C318.757 195.28 320.825 193.325 323.375 191.965C325.982 190.548 328.9 189.84 332.13 189.84C335.304 189.84 338.109 190.52 340.545 191.88C343.039 193.183 344.994 195.082 346.41 197.575C347.884 200.012 348.62 202.958 348.62 206.415V232H335.615Z" fill="white"/>
</svg>
