<svg width="246" height="32" viewBox="0 0 246 32" fill="none" xmlns="http://www.w3.org/2000/svg">
<g filter="url(#filter0_d_1_12)">
<path d="M4.176 23V0.407999H7.76L16.656 14.264H14.832L23.696 0.407999H27.312V23H22.288V8.888L23.184 9.112L17.392 18.136H14.064L8.304 9.112L9.168 8.888V23H4.176ZM42.4288 23.384C40.7221 23.384 39.1434 23.0853 37.6927 22.488C36.2634 21.8907 35.0048 21.0587 33.9168 19.992C32.8288 18.9253 31.9861 17.688 31.3888 16.28C30.7914 14.8507 30.4928 13.3147 30.4928 11.672C30.4928 10.008 30.7914 8.472 31.3888 7.064C31.9861 5.656 32.8181 4.42933 33.8848 3.384C34.9514 2.31733 36.1994 1.496 37.6288 0.919998C39.0794 0.322665 40.6581 0.0239983 42.3648 0.0239983C44.0501 0.0239983 45.6074 0.322665 47.0368 0.919998C48.4874 1.496 49.7461 2.31733 50.8128 3.384C51.9008 4.42933 52.7434 5.66667 53.3408 7.096C53.9381 8.504 54.2368 10.04 54.2368 11.704C54.2368 13.3467 53.9381 14.8827 53.3408 16.312C52.7434 17.72 51.9114 18.9573 50.8448 20.024C49.7781 21.0693 48.5194 21.8907 47.0688 22.488C45.6394 23.0853 44.0928 23.384 42.4288 23.384ZM42.3648 18.808C43.7088 18.808 44.8821 18.5093 45.8848 17.912C46.9088 17.3147 47.6981 16.4827 48.2528 15.416C48.8074 14.328 49.0848 13.08 49.0848 11.672C49.0848 10.6053 48.9248 9.64533 48.6048 8.792C48.2848 7.91733 47.8261 7.17067 47.2288 6.552C46.6314 5.912 45.9168 5.432 45.0848 5.112C44.2741 4.77067 43.3674 4.6 42.3648 4.6C41.0208 4.6 39.8368 4.89867 38.8128 5.496C37.8101 6.072 37.0314 6.89333 36.4768 7.96C35.9221 9.00533 35.6448 10.2427 35.6448 11.672C35.6448 12.7387 35.8048 13.7093 36.1248 14.584C36.4448 15.4587 36.8928 16.216 37.4688 16.856C38.0661 17.4747 38.7808 17.9547 39.6128 18.296C40.4448 18.6373 41.3621 18.808 42.3648 18.808ZM68.5225 23.384C66.8158 23.384 65.2372 23.0853 63.7865 22.488C62.3572 21.8907 61.0985 21.0587 60.0105 19.992C58.9225 18.9253 58.0798 17.688 57.4825 16.28C56.8852 14.8507 56.5865 13.3147 56.5865 11.672C56.5865 10.008 56.8852 8.472 57.4825 7.064C58.0798 5.656 58.9118 4.42933 59.9785 3.384C61.0452 2.31733 62.2932 1.496 63.7225 0.919998C65.1732 0.322665 66.7518 0.0239983 68.4585 0.0239983C70.1438 0.0239983 71.7012 0.322665 73.1305 0.919998C74.5812 1.496 75.8398 2.31733 76.9065 3.384C77.9945 4.42933 78.8372 5.66667 79.4345 7.096C80.0318 8.504 80.3305 10.04 80.3305 11.704C80.3305 13.3467 80.0318 14.8827 79.4345 16.312C78.8372 17.72 78.0052 18.9573 76.9385 20.024C75.8718 21.0693 74.6132 21.8907 73.1625 22.488C71.7332 23.0853 70.1865 23.384 68.5225 23.384ZM68.4585 18.808C69.8025 18.808 70.9758 18.5093 71.9785 17.912C73.0025 17.3147 73.7918 16.4827 74.3465 15.416C74.9012 14.328 75.1785 13.08 75.1785 11.672C75.1785 10.6053 75.0185 9.64533 74.6985 8.792C74.3785 7.91733 73.9198 7.17067 73.3225 6.552C72.7252 5.912 72.0105 5.432 71.1785 5.112C70.3678 4.77067 69.4612 4.6 68.4585 4.6C67.1145 4.6 65.9305 4.89867 64.9065 5.496C63.9038 6.072 63.1252 6.89333 62.5705 7.96C62.0158 9.00533 61.7385 10.2427 61.7385 11.672C61.7385 12.7387 61.8985 13.7093 62.2185 14.584C62.5385 15.4587 62.9865 16.216 63.5625 16.856C64.1598 17.4747 64.8745 17.9547 65.7065 18.296C66.5385 18.6373 67.4558 18.808 68.4585 18.808ZM86.9118 23V18.584H92.5118C93.8771 18.584 95.0718 18.3173 96.0958 17.784C97.1198 17.2293 97.9091 16.4293 98.4638 15.384C99.0184 14.3387 99.2958 13.1013 99.2958 11.672C99.2958 10.2427 99.0078 9.016 98.4318 7.992C97.8771 6.968 97.0878 6.17867 96.0638 5.624C95.0611 5.06933 93.8771 4.792 92.5118 4.792H86.7518V0.407999H92.5758C94.2824 0.407999 95.8504 0.685333 97.2798 1.24C98.7304 1.77333 99.9891 2.552 101.056 3.576C102.144 4.57867 102.976 5.77333 103.552 7.16C104.149 8.52533 104.448 10.04 104.448 11.704C104.448 13.3467 104.149 14.8613 103.552 16.248C102.976 17.6347 102.154 18.8293 101.088 19.832C100.021 20.8347 98.7624 21.6133 97.3118 22.168C95.8824 22.7227 94.3251 23 92.6398 23H86.9118ZM83.5198 23V0.407999H88.5438V23H83.5198ZM107.645 23V0.407999H111.165L112.669 4.92V23H107.645ZM123.229 23L109.917 5.944L111.165 0.407999L124.477 17.464L123.229 23ZM123.229 23L121.885 18.488V0.407999H126.909V23H123.229ZM131.27 23V0.407999H136.294V23H131.27ZM140.645 23V0.407999H144.165L145.669 4.92V23H140.645ZM156.229 23L142.917 5.944L144.165 0.407999L157.477 17.464L156.229 23ZM156.229 23L154.885 18.488V0.407999H159.909V23H156.229ZM168.974 23.352C167.544 23.352 166.296 23.096 165.23 22.584C164.184 22.0507 163.288 21.3147 162.542 20.376L165.902 17.144C166.286 17.6773 166.734 18.0827 167.246 18.36C167.779 18.6373 168.376 18.776 169.038 18.776C169.678 18.776 170.232 18.648 170.702 18.392C171.171 18.1147 171.544 17.7307 171.822 17.24C172.099 16.728 172.238 16.0987 172.238 15.352V0.407999H177.294V15.064C177.294 16.7493 176.952 18.2107 176.27 19.448C175.587 20.6853 174.627 21.6453 173.39 22.328C172.152 23.0107 170.68 23.352 168.974 23.352ZM178.761 23L187.721 0.407999H192.265L201.129 23H195.817L189.033 4.248H190.857L183.977 23H178.761ZM183.849 18.904V14.808H196.169V18.904H183.849ZM206.394 23.352C205.562 23.352 204.868 23.064 204.314 22.488C203.759 21.912 203.482 21.2187 203.482 20.408C203.482 19.5547 203.759 18.8507 204.314 18.296C204.868 17.72 205.562 17.432 206.394 17.432C207.247 17.432 207.94 17.72 208.474 18.296C209.028 18.8507 209.306 19.5547 209.306 20.408C209.306 21.2187 209.028 21.912 208.474 22.488C207.94 23.064 207.247 23.352 206.394 23.352ZM211.668 23L220.628 0.407999H225.172L234.036 23H228.724L221.94 4.248H223.764L216.884 23H211.668ZM216.756 18.904V14.808H229.076V18.904H216.756ZM236.426 23V0.407999H241.45V23H236.426Z" fill="white"/>
</g>
<defs>
<filter id="filter0_d_1_12" x="0.175995" y="0.0239868" width="245.274" height="31.36" filterUnits="userSpaceOnUse" color-interpolation-filters="sRGB">
<feFlood flood-opacity="0" result="BackgroundImageFix"/>
<feColorMatrix in="SourceAlpha" type="matrix" values="0 0 0 0 0 0 0 0 0 0 0 0 0 0 0 0 0 0 127 0" result="hardAlpha"/>
<feOffset dy="4"/>
<feGaussianBlur stdDeviation="2"/>
<feComposite in2="hardAlpha" operator="out"/>
<feColorMatrix type="matrix" values="0 0 0 0 0 0 0 0 0 0 0 0 0 0 0 0 0 0 0.25 0"/>
<feBlend mode="normal" in2="BackgroundImageFix" result="effect1_dropShadow_1_12"/>
<feBlend mode="normal" in="SourceGraphic" in2="effect1_dropShadow_1_12" result="shape"/>
</filter>
</defs>
</svg>
