<svg width="48" height="40" viewBox="0 0 48 40" fill="none" xmlns="http://www.w3.org/2000/svg">
<path d="M23.8685 3.25397C21.2564 3.25397 18.67 3.6748 16.2567 4.49244C13.8435 5.31007 11.6508 6.5085 9.80384 8.01929C6.07368 11.0705 3.97809 15.2088 3.97809 19.5238C3.97809 26.7151 9.68663 32.8163 17.5831 34.9802C18.5776 35.1103 18.8959 34.606 18.8959 34.1667V31.4171C13.3862 32.3933 12.2127 29.2369 12.2127 29.2369C11.2977 27.3496 10.0049 26.8452 10.0049 26.8452C8.19485 25.8365 10.1441 25.869 10.1441 25.869C12.1331 25.9829 13.1873 27.5448 13.1873 27.5448C14.9178 30.0179 17.8417 29.2857 18.9754 28.8952C19.1544 27.8377 19.6716 27.1218 20.2285 26.7151C15.8129 26.3083 11.1784 24.9091 11.1784 18.7103C11.1784 16.9044 11.9342 15.4563 13.2271 14.3012C13.0282 13.8944 12.332 12.2024 13.426 10.006C13.426 10.006 15.0968 9.56667 18.8959 11.6655C20.4672 11.3075 22.1778 11.1286 23.8685 11.1286C25.5591 11.1286 27.2697 11.3075 28.8411 11.6655C32.6401 9.56667 34.3109 10.006 34.3109 10.006C35.4049 12.2024 34.7087 13.8944 34.5098 14.3012C35.8027 15.4563 36.5585 16.9044 36.5585 18.7103C36.5585 24.9254 31.9042 26.2921 27.4686 26.6988C28.1847 27.2032 28.8411 28.1956 28.8411 29.7087V34.1667C28.8411 34.606 29.1593 35.1266 30.1737 34.9802C38.0702 32.8 43.7588 26.7151 43.7588 19.5238C43.7588 17.3872 43.2444 15.2716 42.2448 13.2976C41.2452 11.3237 39.7801 9.53009 37.9331 8.01929C36.0861 6.5085 33.8934 5.31007 31.4802 4.49244C29.067 3.6748 26.4805 3.25397 23.8685 3.25397Z" fill="white"/>
</svg>
