<svg width="49" height="40" viewBox="0 0 49 40" fill="none" xmlns="http://www.w3.org/2000/svg">
<path d="M29.6939 26.0242C29.853 26.1706 29.853 26.4798 29.6939 26.6587C28.2419 27.7976 25.5368 27.8952 24.7213 27.8952C23.9456 27.8952 21.2405 27.7976 19.8283 26.6587C19.6294 26.4798 19.6294 26.1706 19.8283 26.0242C20.0471 25.8615 20.3852 25.8615 20.5841 26.0242C21.4991 26.7726 23.3887 26.9841 24.7213 26.9841C26.0937 26.9841 28.0231 26.7726 28.8983 26.0242C29.1171 25.8615 29.4552 25.8615 29.6939 26.0242ZM22.235 22.1683C22.235 21.2409 21.3002 20.4762 20.1664 20.4762C19.0327 20.4762 18.0978 21.2409 18.0978 22.1683C18.0978 23.0956 19.0327 23.8766 20.1664 23.8603C21.3002 23.8603 22.235 23.0956 22.235 22.1683ZM29.2762 20.4762C28.1425 20.4762 27.2076 21.2897 27.2076 22.1845C27.2076 23.0794 28.1425 23.8766 29.2762 23.8766C30.41 23.8766 31.3448 23.0956 31.3448 22.1845C31.3448 21.2897 30.41 20.4762 29.2762 20.4762ZM44.6117 20.4762C44.6117 29.4246 35.661 36.746 24.7213 36.746C13.7816 36.746 4.83093 29.4246 4.83093 20.4762C4.83093 11.5278 13.7816 4.20636 24.7213 4.20636C35.661 4.20636 44.6117 11.5278 44.6117 20.4762ZM37.9882 20.4762C37.9882 19.1583 36.6555 18.1008 35.1041 18.1008C34.3085 18.1008 33.5924 18.3611 33.0753 18.7679C31.0862 17.5964 28.3612 16.848 25.318 16.7504L26.6507 11.6579L30.9669 12.4226C31.0067 13.3175 31.9216 14.0333 33.0355 14.0333C34.1692 14.0333 35.1041 13.2687 35.1041 12.3413C35.1041 11.4139 34.1692 10.6492 33.0355 10.6492C32.22 10.6492 31.5039 11.0397 31.1857 11.6091L26.3523 10.7631C26.2131 10.7143 26.0739 10.7631 25.9744 10.8282C25.8551 10.8933 25.7954 10.9909 25.7755 11.1048L24.3036 16.7667C21.2206 16.848 18.4359 17.5964 16.4071 18.7841C15.89 18.3774 15.1739 18.1333 14.3982 18.1333C12.7871 18.1333 11.4942 19.1909 11.4942 20.4762C11.4942 21.4687 12.2103 22.2822 13.2048 22.6564C13.165 22.9167 13.1451 23.1119 13.1451 23.3722C13.1451 26.9841 18.3365 29.9941 24.7213 29.9941C31.1459 29.9941 36.3572 27.0329 36.3572 23.3722C36.3572 23.1445 36.3373 22.9167 36.2776 22.6564C37.2721 22.2822 37.9882 21.4524 37.9882 20.4762Z" fill="white"/>
</svg>
