<svg width="49" height="40" viewBox="0 0 49 40" fill="none" xmlns="http://www.w3.org/2000/svg">
<path d="M45.453 9.7619C43.9214 10.3313 42.2705 10.7056 40.56 10.8845C42.3103 10.0222 43.6629 8.65555 44.2994 7.0123C42.6485 7.82579 40.8185 8.39524 38.8892 8.72063C37.3178 7.32143 35.11 6.50793 32.6038 6.50793C27.9296 6.50793 24.1106 9.63174 24.1106 13.4877C24.1106 14.0409 24.1902 14.5778 24.3294 15.0821C17.2485 14.7893 10.9432 12.0071 6.74634 7.79325C6.0104 8.81825 5.5927 10.0222 5.5927 11.2913C5.5927 13.7155 7.08448 15.8631 9.39176 17.0833C7.97954 17.0833 6.66678 16.7579 5.51314 16.2698V16.3186C5.51314 19.7028 8.45691 22.5337 12.3554 23.1683C11.1038 23.4484 9.78976 23.4874 8.51658 23.2821C9.05682 24.6691 10.1148 25.8827 11.5419 26.7524C12.969 27.622 14.6934 28.104 16.4727 28.1306C13.4566 30.0837 9.71796 31.1394 5.87116 31.1242C5.19489 31.1242 4.51862 31.0917 3.84235 31.0266C7.62152 33.0115 12.1167 34.1667 16.9302 34.1667C32.6038 34.1667 41.2164 23.5262 41.2164 14.3012C41.2164 13.9921 41.2164 13.6992 41.1965 13.3901C42.8673 12.4139 44.2994 11.1774 45.453 9.7619Z" fill="white"/>
</svg>
