<svg width="49" height="40" viewBox="0 0 49 40" fill="none" xmlns="http://www.w3.org/2000/svg">
<g clip-path="url(#clip0_1_25)">
<path d="M44.6852 39.0476L34.2428 30.9127L35.4959 34.1667H9.87707C8.55826 34.1667 7.29346 33.7382 6.36092 32.9754C5.42838 32.2126 4.90448 31.178 4.90448 30.0992V5.69447C4.90448 4.61572 5.42838 3.58114 6.36092 2.81835C7.29346 2.05555 8.55826 1.62701 9.87707 1.62701H39.7126C41.0314 1.62701 42.2962 2.05555 43.2288 2.81835C44.1613 3.58114 44.6852 4.61572 44.6852 5.69447V39.0476ZM24.7949 11.0635C19.4642 11.0635 15.7248 12.9346 15.7248 12.9346C17.7736 11.4377 21.3538 10.5754 21.3538 10.5754L21.0157 10.2988C17.6542 10.3476 14.611 12.2512 14.611 12.2512C11.1898 18.0921 11.4086 23.1357 11.4086 23.1357C14.1933 26.0806 18.3305 25.8691 18.3305 25.8691L19.7427 24.4048C17.2564 23.9655 15.6851 22.1596 15.6851 22.1596C15.6851 22.1596 19.4245 24.2421 24.7949 24.2421C30.1653 24.2421 33.9046 22.1596 33.9046 22.1596C33.9046 22.1596 32.3333 23.9655 29.847 24.4048L31.2592 25.8691C31.2592 25.8691 35.3964 26.0806 38.1811 23.1357C38.1811 23.1357 38.3999 18.0921 34.9787 12.2512C34.9787 12.2512 31.9355 10.3476 28.574 10.2988L28.2359 10.5754C28.2359 10.5754 31.8162 11.4377 33.8649 12.9346C33.8649 12.9346 30.1255 11.0635 24.7949 11.0635ZM20.6775 17.2298C21.9704 17.2298 23.0246 18.1572 23.0047 19.2961C23.0047 20.4187 21.9704 21.3623 20.6775 21.3623C19.4046 21.3623 18.3703 20.4187 18.3703 19.2961C18.3703 18.1572 19.3847 17.2298 20.6775 17.2298ZM28.9718 17.2298C30.2647 17.2298 31.299 18.1572 31.299 19.2961C31.299 20.4187 30.2647 21.3623 28.9718 21.3623C27.6988 21.3623 26.6645 20.4187 26.6645 19.2961C26.6645 18.1572 27.679 17.2298 28.9718 17.2298Z" fill="white"/>
</g>
<defs>
<clipPath id="clip0_1_25">
<rect width="47.7369" height="39.0476" fill="white" transform="translate(0.926392)"/>
</clipPath>
</defs>
</svg>
