<svg width="314" height="49" viewBox="0 0 314 49" fill="none" xmlns="http://www.w3.org/2000/svg">
<g filter="url(#filter0_d_1_24)">
<g clip-path="url(#clip0_1_24)">
<path d="M133.685 39.0476L123.243 30.9127L124.496 34.1667H98.8771C97.5583 34.1667 96.2935 33.7382 95.3609 32.9754C94.4284 32.2126 93.9045 31.178 93.9045 30.0992V5.69447C93.9045 4.61572 94.4284 3.58114 95.3609 2.81835C96.2935 2.05555 97.5583 1.62701 98.8771 1.62701H128.713C130.031 1.62701 131.296 2.05555 132.229 2.81835C133.161 3.58114 133.685 4.61572 133.685 5.69447V39.0476ZM113.795 11.0635C108.464 11.0635 104.725 12.9346 104.725 12.9346C106.774 11.4377 110.354 10.5754 110.354 10.5754L110.016 10.2988C106.654 10.3476 103.611 12.2512 103.611 12.2512C100.19 18.0921 100.409 23.1357 100.409 23.1357C103.193 26.0806 107.33 25.8691 107.33 25.8691L108.743 24.4048C106.256 23.9655 104.685 22.1596 104.685 22.1596C104.685 22.1596 108.424 24.2421 113.795 24.2421C119.165 24.2421 122.905 22.1596 122.905 22.1596C122.905 22.1596 121.333 23.9655 118.847 24.4048L120.259 25.8691C120.259 25.8691 124.396 26.0806 127.181 23.1357C127.181 23.1357 127.4 18.0921 123.979 12.2512C123.979 12.2512 120.935 10.3476 117.574 10.2988L117.236 10.5754C117.236 10.5754 120.816 11.4377 122.865 12.9346C122.865 12.9346 119.125 11.0635 113.795 11.0635M109.678 17.2298C110.97 17.2298 112.025 18.1572 112.005 19.2961C112.005 20.4187 110.97 21.3623 109.678 21.3623C108.405 21.3623 107.37 20.4187 107.37 19.2961C107.37 18.1572 108.385 17.2298 109.678 17.2298ZM117.972 17.2298C119.265 17.2298 120.299 18.1572 120.299 19.2961C120.299 20.4187 119.265 21.3623 117.972 21.3623C116.699 21.3623 115.665 20.4187 115.665 19.2961C115.665 18.1572 116.679 17.2298 117.972 17.2298Z" fill="white"/>
</g>
<path d="M27.8685 3.25397C25.2564 3.25397 22.67 3.6748 20.2567 4.49244C17.8435 5.31007 15.6508 6.5085 13.8038 8.01929C10.0737 11.0705 7.97809 15.2088 7.97809 19.5238C7.97809 26.7151 13.6866 32.8163 21.5831 34.9802C22.5776 35.1103 22.8959 34.606 22.8959 34.1667V31.4171C17.3862 32.3933 16.2127 29.2369 16.2127 29.2369C15.2977 27.3496 14.0049 26.8452 14.0049 26.8452C12.1948 25.8365 14.1441 25.869 14.1441 25.869C16.1331 25.9829 17.1873 27.5448 17.1873 27.5448C18.9178 30.0179 21.8417 29.2857 22.9754 28.8952C23.1544 27.8377 23.6716 27.1218 24.2285 26.7151C19.8129 26.3083 15.1784 24.9091 15.1784 18.7103C15.1784 16.9044 15.9342 15.4563 17.2271 14.3012C17.0282 13.8944 16.332 12.2024 17.426 10.006C17.426 10.006 19.0968 9.56667 22.8959 11.6655C24.4672 11.3075 26.1778 11.1286 27.8685 11.1286C29.5591 11.1286 31.2697 11.3075 32.8411 11.6655C36.6401 9.56667 38.3109 10.006 38.3109 10.006C39.4049 12.2024 38.7087 13.8944 38.5098 14.3012C39.8027 15.4563 40.5585 16.9044 40.5585 18.7103C40.5585 24.9254 35.9042 26.2921 31.4686 26.6988C32.1847 27.2032 32.8411 28.1956 32.8411 29.7087V34.1667C32.8411 34.606 33.1593 35.1266 34.1737 34.9802C42.0702 32.8 47.7588 26.7151 47.7588 19.5238C47.7588 17.3872 47.2444 15.2716 46.2448 13.2976C45.2452 11.3237 43.7801 9.53009 41.9331 8.01929C40.0861 6.5085 37.8934 5.31007 35.4802 4.49244C33.067 3.6748 30.4805 3.25397 27.8685 3.25397V3.25397Z" fill="white"/>
<path d="M306.453 9.7619C304.921 10.3313 303.271 10.7056 301.56 10.8845C303.31 10.0222 304.663 8.65555 305.299 7.0123C303.648 7.82579 301.819 8.39524 299.889 8.72063C298.318 7.32143 296.11 6.50793 293.604 6.50793C288.93 6.50793 285.111 9.63174 285.111 13.4877C285.111 14.0409 285.19 14.5778 285.329 15.0821C278.248 14.7893 271.943 12.0071 267.746 7.79325C267.01 8.81825 266.593 10.0222 266.593 11.2913C266.593 13.7155 268.084 15.8631 270.392 17.0833C268.98 17.0833 267.667 16.7579 266.513 16.2698V16.3186C266.513 19.7028 269.457 22.5337 273.355 23.1683C272.104 23.4484 270.79 23.4874 269.517 23.2821C270.057 24.6691 271.115 25.8827 272.542 26.7524C273.969 27.622 275.693 28.104 277.473 28.1306C274.457 30.0836 270.718 31.1394 266.871 31.1242C266.195 31.1242 265.519 31.0917 264.842 31.0266C268.622 33.0115 273.117 34.1667 277.93 34.1667C293.604 34.1667 302.216 23.5262 302.216 14.3012C302.216 13.9921 302.216 13.6992 302.196 13.3901C303.867 12.4139 305.299 11.1774 306.453 9.7619V9.7619Z" fill="white"/>
<path d="M204.694 27.0242C204.853 27.1706 204.853 27.4798 204.694 27.6587C203.242 28.7976 200.537 28.8952 199.721 28.8952C198.946 28.8952 196.24 28.7976 194.828 27.6587C194.629 27.4798 194.629 27.1706 194.828 27.0242C195.047 26.8615 195.385 26.8615 195.584 27.0242C196.499 27.7726 198.389 27.9841 199.721 27.9841C201.094 27.9841 203.023 27.7726 203.898 27.0242C204.117 26.8615 204.455 26.8615 204.694 27.0242M197.235 23.1683C197.235 22.2409 196.3 21.4762 195.166 21.4762C194.033 21.4762 193.098 22.2409 193.098 23.1683C193.098 24.0956 194.033 24.8766 195.166 24.8603C196.3 24.8603 197.235 24.0956 197.235 23.1683ZM204.276 21.4762C203.142 21.4762 202.208 22.2897 202.208 23.1845C202.208 24.0794 203.142 24.8766 204.276 24.8766C205.41 24.8766 206.345 24.0956 206.345 23.1845C206.345 22.2897 205.41 21.4762 204.276 21.4762ZM219.612 21.4762C219.612 30.4246 210.661 37.746 199.721 37.746C188.782 37.746 179.831 30.4246 179.831 21.4762C179.831 12.5278 188.782 5.20636 199.721 5.20636C210.661 5.20636 219.612 12.5278 219.612 21.4762ZM212.988 21.4762C212.988 20.1583 211.656 19.1008 210.104 19.1008C209.308 19.1008 208.592 19.3611 208.075 19.7679C206.086 18.5964 203.361 17.848 200.318 17.7504L201.651 12.6579L205.967 13.4226C206.007 14.3175 206.922 15.0333 208.035 15.0333C209.169 15.0333 210.104 14.2687 210.104 13.3413C210.104 12.4139 209.169 11.6492 208.035 11.6492C207.22 11.6492 206.504 12.0397 206.186 12.6091L201.352 11.7631C201.213 11.7143 201.074 11.7631 200.974 11.8282C200.855 11.8933 200.795 11.9909 200.775 12.1048L199.304 17.7667C196.221 17.848 193.436 18.5964 191.407 19.7841C190.89 19.3774 190.174 19.1333 189.398 19.1333C187.787 19.1333 186.494 20.1909 186.494 21.4762C186.494 22.4687 187.21 23.2822 188.205 23.6564C188.165 23.9167 188.145 24.1119 188.145 24.3722C188.145 27.9841 193.336 30.9941 199.721 30.9941C206.146 30.9941 211.357 28.0329 211.357 24.3722C211.357 24.1445 211.337 23.9167 211.278 23.6564C212.272 23.2822 212.988 22.4524 212.988 21.4762V21.4762Z" fill="white"/>
</g>
<defs>
<filter id="filter0_d_1_24" x="0" y="0" width="313.516" height="49" filterUnits="userSpaceOnUse" color-interpolation-filters="sRGB">
<feFlood flood-opacity="0" result="BackgroundImageFix"/>
<feColorMatrix in="SourceAlpha" type="matrix" values="0 0 0 0 0 0 0 0 0 0 0 0 0 0 0 0 0 0 127 0" result="hardAlpha"/>
<feOffset dy="4"/>
<feGaussianBlur stdDeviation="2"/>
<feComposite in2="hardAlpha" operator="out"/>
<feColorMatrix type="matrix" values="0 0 0 0 0 0 0 0 0 0 0 0 0 0 0 0 0 0 0.25 0"/>
<feBlend mode="normal" in2="BackgroundImageFix" result="effect1_dropShadow_1_24"/>
<feBlend mode="normal" in="SourceGraphic" in2="effect1_dropShadow_1_24" result="shape"/>
</filter>
<clipPath id="clip0_1_24">
<rect width="47.7369" height="39.0476" fill="white" transform="translate(89.9264)"/>
</clipPath>
</defs>
</svg>
